# xmcd CD database file
#
# Track frame offsets:
#	150
#	11292
#	26936
#	41429
#	62761
#	75569
#	93111
#	104248
#	118691
#	130484
#	144599
#	158065
#	169766
#	183951
#	193651
#	213119
#
# Disc length: 2981 seconds
#
# Revision: 4
# Processed by: cddbd v1.5.2PL0 Copyright (c) Steve Scherf et al.
# Submitted via: CDex 1.70beta2
#
DISCID=d60ba310
DTITLE=Didi Ton präsentiert - Die DT 64 Story - Vol.9 - Hei-Nun - Country Hits
DYEAR=1997
DGENRE=DDR-Country
TTITLE0=Country Tramp - Square Dance
TTITLE1=Simple Song - Alles was man haben will
TTITLE2=Brigitte and Co - Immer auf Achse
TTITLE3=Winnie II - Rodeo auf dem Dorf
TTITLE4=Wilk and Friends - Frei und ledig
TTITLE5=Country Pur - White Lady
TTITLE6=Kactus - Bärenstarke Cowboys
TTITLE7=Biber's Farm - Zwei starke Arme
TTITLE8=Thomas Wagner and Country Co. - Vor zweimal 50 Jahr'n
TTITLE9=Ecke and Co - Die Malerin
TTITLE10=Steigbügel - Phantasie
TTITLE11=Hufeisen - Landurlaub
TTITLE12=Peter Tschernig - Mein bester Kumpel
TTITLE13=Whisky and Soda - Der Truckman
TTITLE14=Sonny's Country Special - Du machst mir Mut
TTITLE15=Fox Tower Bluegrass - Fox Tower Breakdown
EXTD=CD - VÖ-Datum: 26.5.97\nAmiga, AAD\n YEAR: 1997
EXTT0=
EXTT1=
EXTT2=
EXTT3=
EXTT4=
EXTT5=
EXTT6=
EXTT7=
EXTT8=
EXTT9=
EXTT10=
EXTT11=
EXTT12=
EXTT13=
EXTT14=
EXTT15=
PLAYORDER=
